<?xml version="1.0" standalone="no"?>
<!DOCTYPE svg PUBLIC "-//W3C//DTD SVG 20010904//EN"
 "http://www.w3.org/TR/2001/REC-SVG-20010904/DTD/svg10.dtd">
<svg version="1.0" xmlns="http://www.w3.org/2000/svg"
 width="260.000000pt" height="260.000000pt" viewBox="0 0 260.000000 260.000000"
 preserveAspectRatio="xMidYMid meet">
<metadata>
Created by potrace 1.11, written by Peter Selinger 2001-2013
</metadata>
<g transform="translate(0.000000,260.000000) scale(0.100000,-0.100000)"
fill="#000000" stroke="none">
<path d="M1285 2500 c-10 -11 -13 -20 -7 -20 6 0 13 6 15 13 4 8 8 8 14 2 4
-5 17 -17 28 -25 17 -13 16 -11 -4 18 -12 17 -24 32 -25 32 -2 0 -11 -9 -21
-20z"/>
<path d="M1133 2503 c9 -2 23 -2 30 0 6 3 -1 5 -18 5 -16 0 -22 -2 -12 -5z"/>
<path d="M1443 2503 c9 -2 23 -2 30 0 6 3 -1 5 -18 5 -16 0 -22 -2 -12 -5z"/>
<path d="M1050 2490 c0 -5 9 -10 19 -10 11 0 23 5 26 10 4 6 -5 10 -19 10 -14
0 -26 -4 -26 -10z"/>
<path d="M1510 2490 c0 -5 11 -10 25 -10 14 0 25 5 25 10 0 6 -11 10 -25 10
-14 0 -25 -4 -25 -10z"/>
<path d="M1008 2473 c7 -3 16 -2 19 1 4 3 -2 6 -13 5 -11 0 -14 -3 -6 -6z"/>
<path d="M1588 2473 c7 -3 16 -2 19 1 4 3 -2 6 -13 5 -11 0 -14 -3 -6 -6z"/>
<path d="M958 2463 c7 -3 16 -2 19 1 4 3 -2 6 -13 5 -11 0 -14 -3 -6 -6z"/>
<path d="M1240 2438 c-14 -17 -35 -41 -47 -53 -13 -12 -23 -26 -23 -31 0 -10
77 74 91 99 15 26 7 21 -21 -15z"/>
<path d="M910 2450 c0 -5 4 -10 9 -10 6 0 13 5 16 10 3 6 -1 10 -9 10 -9 0
-16 -4 -16 -10z"/>
<path d="M1670 2450 c0 -5 5 -10 10 -10 6 0 10 5 10 10 0 6 -4 10 -10 10 -5 0
-10 -4 -10 -10z"/>
<path d="M1377 2415 c39 -54 65 -85 74 -85 7 0 -13 25 -76 95 -26 30 -26 30 2
-10z"/>
<path d="M878 2433 c7 -3 16 -2 19 1 4 3 -2 6 -13 5 -11 0 -14 -3 -6 -6z"/>
<path d="M1764 2415 c36 -19 47 -19 22 0 -11 8 -27 15 -35 15 -9 0 -3 -7 13
-15z"/>
<path d="M810 2410 c0 -5 5 -10 10 -10 6 0 10 5 10 10 0 6 -4 10 -10 10 -5 0
-10 -4 -10 -10z"/>
<path d="M765 2390 c-13 -6 -15 -9 -5 -9 8 0 22 4 30 9 18 12 2 12 -25 0z"/>
<path d="M709 2361 c-23 -20 -23 -20 -2 -14 12 3 24 11 27 19 7 19 3 18 -25
-5z"/>
<path d="M1880 2362 c0 -10 50 -35 57 -28 2 2 -5 7 -16 11 -12 3 -21 11 -21
16 0 5 -4 9 -10 9 -5 0 -10 -4 -10 -8z"/>
<path d="M640 2320 c-13 -11 -20 -20 -16 -20 4 0 19 9 33 20 14 11 21 20 16
20 -6 0 -20 -9 -33 -20z"/>
<path d="M1132 2310 c-12 -19 -11 -20 8 -8 20 13 27 28 12 28 -4 0 -13 -9 -20
-20z"/>
<path d="M1950 2321 c0 -10 19 -25 25 -20 1 2 -3 10 -11 17 -8 7 -14 8 -14 3z"/>
<path d="M587 2280 c-9 -11 -13 -20 -7 -20 5 0 14 9 20 20 6 11 9 20 8 20 -2
0 -11 -9 -21 -20z"/>
<path d="M1476 2287 c2 -7 13 -18 24 -25 19 -11 19 -11 8 8 -14 22 -40 36 -32
17z"/>
<path d="M1997 2284 c6 -15 23 -19 23 -5 0 5 -7 11 -14 14 -10 4 -13 1 -9 -9z"/>
<path d="M2058 2244 c56 -48 156 -150 177 -180 38 -53 67 -80 33 -30 -41 61
-150 174 -203 211 l-40 28 33 -29z"/>
<path d="M503 2215 c-26 -25 -51 -45 -54 -45 -4 0 -10 -8 -13 -17 -5 -13 0
-11 21 7 58 53 106 100 100 100 -3 0 -27 -20 -54 -45z"/>
<path d="M1085 2250 c-4 -6 -83 -10 -206 -10 -126 0 -199 -4 -199 -10 0 -10
93 -11 616 -10 251 0 241 2 289 -62 15 -21 32 -38 38 -38 6 0 4 6 -5 13 -8 6
-27 29 -43 50 l-27 37 181 0 181 0 -10 -25 c-5 -14 -8 -25 -5 -25 3 0 35 59
35 67 0 2 -136 3 -302 3 -519 -1 -544 0 -528 10 9 6 10 10 3 10 -6 0 -15 -4
-18 -10z"/>
<path d="M697 2194 c6 -15 23 -19 23 -5 0 5 -7 11 -14 14 -10 4 -13 1 -9 -9z"/>
<path d="M1315 2200 c3 -5 8 -10 11 -10 2 0 4 5 4 10 0 6 -5 10 -11 10 -5 0
-7 -4 -4 -10z"/>
<path d="M1023 2174 c-13 -11 -23 -24 -23 -28 0 -4 12 4 27 18 15 14 25 27 23
29 -3 2 -15 -7 -27 -19z"/>
<path d="M1267 2186 c-4 -10 -1 -13 9 -9 7 3 14 9 14 14 0 14 -17 10 -23 -5z"/>
<path d="M727 2150 c3 -11 9 -22 13 -25 5 -3 6 4 3 15 -3 11 -9 22 -13 25 -5
3 -6 -4 -3 -15z"/>
<path d="M1860 2130 c-7 -16 -18 -35 -26 -41 -8 -6 -14 -16 -14 -22 0 -14 38
31 45 54 4 11 11 19 16 19 5 0 9 5 9 10 0 21 -18 9 -30 -20z"/>
<path d="M384 2096 c-18 -18 -37 -44 -44 -57 -7 -13 -18 -27 -24 -31 -8 -5 -7
-8 1 -8 7 0 20 14 28 30 9 17 30 44 47 60 17 17 29 32 27 34 -2 3 -18 -10 -35
-28z"/>
<path d="M972 2110 c-25 -23 -28 -32 -9 -24 11 4 42 44 34 44 -2 0 -13 -9 -25
-20z"/>
<path d="M1233 2118 c-21 -27 -24 -38 -10 -32 8 3 17 14 20 25 6 22 3 24 -10
7z"/>
<path d="M750 2100 c0 -5 4 -10 9 -10 5 0 13 -9 16 -21 4 -11 9 -18 11 -16 7
7 -18 57 -28 57 -4 0 -8 -4 -8 -10z"/>
<path d="M1652 2070 c7 -11 18 -22 25 -24 19 -8 5 18 -17 32 -19 11 -19 11 -8
-8z"/>
<path d="M1390 2066 c0 -4 9 -19 20 -33 11 -14 20 -21 20 -16 0 6 -9 20 -20
33 -11 13 -20 20 -20 16z"/>
<path d="M892 2011 c-18 -22 -32 -43 -32 -47 0 -4 14 11 31 32 17 21 36 42 42
46 8 5 8 8 1 8 -6 0 -25 -18 -42 -39z"/>
<path d="M1803 2038 c-21 -27 -24 -38 -10 -32 8 3 17 14 20 25 6 22 3 24 -10
7z"/>
<path d="M802 2026 c7 -8 15 -12 17 -11 5 6 -10 25 -20 25 -5 0 -4 -6 3 -14z"/>
<path d="M1690 2021 c0 -5 12 -17 28 -26 l27 -18 -24 27 c-26 28 -31 31 -31
17z"/>
<path d="M1166 2003 c-6 -14 -5 -15 5 -6 7 7 10 15 7 18 -3 3 -9 -2 -12 -12z"/>
<path d="M1444 1975 c8 -16 20 -37 25 -45 10 -13 11 -13 11 0 0 8 -12 29 -26
45 l-25 30 15 -30z"/>
<path d="M282 1960 c-24 -33 -29 -49 -9 -28 15 14 40 58 34 58 -2 0 -13 -13
-25 -30z"/>
<path d="M833 1954 c0 -17 4 -24 13 -20 8 3 14 0 14 -6 0 -6 3 -8 7 -5 7 8
-16 57 -27 57 -4 0 -7 -12 -7 -26z"/>
<path d="M1136 1964 c-9 -22 -8 -24 9 -18 8 4 15 12 15 20 0 19 -16 18 -24 -2z"/>
<path d="M2300 1971 c0 -10 19 -25 25 -20 1 2 -3 10 -11 17 -8 7 -14 8 -14 3z"/>
<path d="M1740 1949 c0 -15 5 -19 15 -15 8 3 15 1 15 -4 0 -5 20 -30 45 -57
25 -26 45 -44 45 -40 0 4 -18 26 -40 48 -22 23 -43 52 -46 65 -8 30 -34 32
-34 3z"/>
<path d="M530 1935 c0 -8 4 -15 9 -15 5 0 15 -16 21 -35 6 -19 15 -35 20 -35
4 0 11 -12 14 -26 4 -15 9 -24 12 -22 6 7 -16 68 -25 68 -4 0 -14 18 -21 40
-13 40 -30 54 -30 25z"/>
<path d="M1283 1925 c-6 -14 -9 -25 -6 -25 7 0 32 33 33 43 0 16 -16 5 -27
-18z"/>
<path d="M2063 1924 c-6 -13 -7 -24 -3 -24 9 0 25 39 18 45 -2 2 -8 -7 -15
-21z"/>
<path d="M2330 1931 c0 -6 4 -13 10 -16 6 -3 7 1 4 9 -7 18 -14 21 -14 7z"/>
<path d="M1116 1915 c-9 -26 -7 -32 5 -12 6 10 9 21 6 23 -2 3 -7 -2 -11 -11z"/>
<path d="M802 1900 c-25 -23 -28 -32 -9 -24 11 4 42 44 34 44 -2 0 -13 -9 -25
-20z"/>
<path d="M1322 1900 c7 -10 14 -18 15 -16 6 6 -9 36 -18 36 -5 0 -4 -9 3 -20z"/>
<path d="M880 1890 c14 -27 29 -34 23 -11 -3 11 -11 22 -19 25 -11 4 -12 2 -4
-14z"/>
<path d="M1490 1903 c5 -2 10 -11 10 -18 0 -8 4 -17 10 -20 6 -4 7 2 1 16 -4
13 -13 24 -20 25 -6 1 -7 0 -1 -3z"/>
<path d="M1715 1886 c-23 -25 -26 -40 -4 -19 12 12 21 24 18 27 -2 2 -9 -1
-14 -8z"/>
<path d="M2350 1890 c0 -5 5 -10 10 -10 6 0 10 5 10 10 0 6 -4 10 -10 10 -5 0
-10 -4 -10 -10z"/>
<path d="M235 1880 c-3 -5 -1 -10 4 -10 6 0 11 5 11 10 0 6 -2 10 -4 10 -3 0
-8 -4 -11 -10z"/>
<path d="M1256 1875 c-9 -26 -7 -32 5 -12 6 10 9 21 6 23 -2 3 -7 -2 -11 -11z"/>
<path d="M2032 1865 c-17 -37 -14 -45 4 -12 9 16 14 31 11 33 -2 2 -9 -7 -15
-21z"/>
<path d="M765 1852 c-5 -4 -17 -16 -25 -26 -14 -18 -14 -19 7 -5 13 7 25 19
27 26 6 15 5 16 -9 5z"/>
<path d="M910 1846 c0 -4 9 -19 20 -33 11 -14 20 -21 20 -16 0 6 -9 20 -20 33
-11 13 -20 20 -20 16z"/>
<path d="M1350 1840 c0 -5 5 -10 10 -10 6 0 10 5 10 10 0 6 -4 10 -10 10 -5 0
-10 -4 -10 -10z"/>
<path d="M1520 1843 c0 -6 9 -20 20 -33 11 -13 20 -20 20 -16 0 4 -9 19 -20
33 -11 14 -20 21 -20 16z"/>
<path d="M205 1818 c-4 -13 -12 -26 -18 -29 -5 -4 -7 -13 -4 -20 3 -9 11 1 21
25 10 21 15 40 12 43 -2 2 -7 -6 -11 -19z"/>
<path d="M1063 1824 c-15 -16 -16 -24 -4 -24 8 0 24 30 19 35 -2 2 -9 -3 -15
-11z"/>
<path d="M1234 1826 c-6 -7 -15 -23 -19 -36 -7 -21 -6 -22 7 -9 14 13 34 60
26 59 -2 -1 -8 -7 -14 -14z"/>
<path d="M1674 1826 c-14 -15 -34 -52 -34 -62 0 -4 11 10 25 31 26 37 30 54 9
31z"/>
<path d="M1866 1807 c2 -7 13 -18 24 -25 19 -11 19 -11 8 8 -14 22 -40 36 -32
17z"/>
<path d="M2000 1810 c0 -5 5 -10 10 -10 6 0 10 5 10 10 0 6 -4 10 -10 10 -5 0
-10 -4 -10 -10z"/>
<path d="M2395 1810 c3 -5 8 -10 11 -10 2 0 4 5 4 10 0 6 -5 10 -11 10 -5 0
-7 -4 -4 -10z"/>
<path d="M712 1783 c-7 -2 -17 -14 -23 -26 -9 -19 -8 -20 3 -7 8 8 20 21 28
28 15 13 13 14 -8 5z"/>
<path d="M960 1760 c14 -27 29 -34 23 -11 -3 11 -11 22 -19 25 -11 4 -12 2 -4
-14z"/>
<path d="M620 1763 c0 -3 7 -15 17 -25 16 -17 8 -18 -229 -18 -225 0 -246 -1
-252 -17 -3 -10 -9 -24 -12 -30 -3 -7 -1 -13 5 -13 6 0 11 7 11 15 0 19 14 19
34 -1 9 -8 16 -12 16 -7 0 5 -6 15 -12 21 -10 10 37 12 224 12 172 -1 238 -5
242 -13 5 -9 7 -9 12 0 4 10 64 13 249 12 225 0 244 -1 239 -17 -5 -16 -5 -16
5 0 10 14 30 17 136 17 118 0 124 -1 131 -22 4 -11 13 -28 22 -36 13 -13 14
-12 7 9 -4 14 -12 27 -16 28 -5 2 -9 8 -9 12 0 5 113 9 250 10 145 0 250 -4
250 -9 0 -5 -4 -11 -9 -13 -4 -1 -12 -14 -15 -28 -7 -23 -6 -23 13 5 11 16 28
33 38 37 27 10 453 10 453 -1 0 -5 -6 -16 -13 -23 -15 -15 -40 -58 -34 -58 2
0 17 18 32 40 20 29 31 37 36 28 14 -22 20 -2 7 23 l-13 24 -233 -3 c-194 -2
-238 0 -265 13 -28 14 -30 14 -13 0 18 -14 6 -15 -138 -15 -145 0 -158 1 -152
17 6 16 5 16 -11 1 -15 -14 -50 -16 -221 -17 l-203 -1 6 22 7 23 -19 -22 c-19
-21 -25 -22 -267 -22 -247 -1 -286 4 -286 34 0 8 -4 15 -10 15 -5 0 -10 -3
-10 -7z"/>
<path d="M1023 1754 c-15 -16 -16 -24 -4 -24 8 0 24 30 19 35 -2 2 -9 -3 -15
-11z"/>
<path d="M1390 1763 c0 -15 19 -37 26 -31 3 4 -1 14 -10 23 -9 9 -16 13 -16 8z"/>
<path d="M1972 1750 c-7 -11 -8 -20 -3 -20 9 0 24 30 18 36 -1 2 -8 -6 -15
-16z"/>
<path d="M2421 1754 c0 -11 3 -14 6 -6 3 7 2 16 -1 19 -3 4 -6 -2 -5 -13z"/>
<path d="M616 1674 c-5 -14 -4 -15 9 -4 17 14 19 20 6 20 -5 0 -12 -7 -15 -16z"/>
<path d="M1583 1678 c-21 -27 -24 -38 -10 -32 8 3 17 14 20 25 6 22 3 24 -10
7z"/>
<path d="M1615 1680 c3 -5 8 -10 11 -10 2 0 4 5 4 10 0 6 -5 10 -11 10 -5 0
-7 -4 -4 -10z"/>
<path d="M968 1658 c-25 -31 -23 -46 2 -18 11 13 20 27 20 32 0 12 -3 10 -22
-14z"/>
<path d="M1010 1670 c0 -5 4 -10 9 -10 5 0 13 -9 16 -21 4 -11 9 -18 11 -16 7
7 -18 57 -28 57 -4 0 -8 -4 -8 -10z"/>
<path d="M1310 1670 c0 -5 5 -10 10 -10 6 0 10 5 10 10 0 6 -4 10 -10 10 -5 0
-10 -4 -10 -10z"/>
<path d="M1980 1671 c0 -4 11 -17 25 -29 14 -12 25 -19 25 -16 0 4 -11 17 -25
30 -14 13 -25 20 -25 15z"/>
<path d="M685 1657 c3 -10 5 -22 5 -26 0 -4 9 -18 20 -31 11 -13 20 -18 20
-12 0 6 -6 17 -13 24 -7 7 -18 24 -25 38 -7 14 -10 17 -7 7z"/>
<path d="M1270 1660 c0 -5 5 -10 10 -10 6 0 10 5 10 10 0 6 -4 10 -10 10 -5 0
-10 -4 -10 -10z"/>
<path d="M1136 1644 c-9 -24 -2 -26 12 -4 7 11 8 20 3 20 -5 0 -12 -7 -15 -16z"/>
<path d="M221 1628 c7 -16 16 -28 21 -28 5 0 13 -11 18 -25 5 -14 14 -25 20
-25 5 0 10 -6 10 -13 0 -7 13 -28 30 -47 16 -19 29 -40 30 -45 0 -6 9 -18 20
-28 26 -22 25 -31 -3 -58 l-22 -21 23 11 c12 6 22 16 22 22 0 6 11 -3 25 -19
14 -17 25 -33 25 -36 0 -3 9 -15 20 -26 11 -11 20 -17 20 -14 0 8 -63 97 -75
107 -7 4 -7 10 0 15 6 4 29 30 50 57 22 28 45 53 50 57 6 5 6 8 -2 8 -7 0 -16
-6 -20 -14 -4 -8 -25 -34 -47 -59 -36 -42 -40 -43 -55 -27 -22 23 -40 51 -47
73 -4 9 -10 17 -15 17 -5 0 -14 11 -19 25 -5 14 -14 25 -20 25 -5 0 -10 6 -10
13 -1 6 -14 28 -31 47 -28 32 -29 33 -18 8z"/>
<path d="M587 1630 c-9 -11 -13 -20 -7 -20 5 0 14 9 20 20 6 11 9 20 8 20 -2
0 -11 -9 -21 -20z"/>
<path d="M131 1624 c0 -11 3 -14 6 -6 3 7 2 16 -1 19 -3 4 -6 -2 -5 -13z"/>
<path d="M1640 1631 c0 -6 4 -13 10 -16 6 -3 7 1 4 9 -7 18 -14 21 -14 7z"/>
<path d="M1340 1613 c0 -15 29 -49 30 -35 0 7 -7 20 -15 28 -8 9 -15 11 -15 7z"/>
<path d="M1537 1602 c-10 -10 -17 -22 -17 -27 0 -4 9 2 20 15 11 13 20 25 20
27 0 7 -8 2 -23 -15z"/>
<path d="M920 1578 c-22 -37 -25 -48 -10 -48 9 0 14 14 11 33 0 4 3 7 8 7 5 0
11 9 14 20 7 29 0 25 -23 -12z"/>
<path d="M1062 1596 c7 -8 15 -12 17 -11 5 6 -10 25 -20 25 -5 0 -4 -6 3 -14z"/>
<path d="M2042 1590 c7 -11 18 -22 25 -24 19 -8 5 18 -17 32 -19 11 -19 11 -8
-8z"/>
<path d="M2471 1594 c0 -11 3 -14 6 -6 3 7 2 16 -1 19 -3 4 -6 -2 -5 -13z"/>
<path d="M1480 1590 c0 -5 5 -10 10 -10 6 0 10 5 10 10 0 6 -4 10 -10 10 -5 0
-10 -4 -10 -10z"/>
<path d="M1665 1590 c3 -5 8 -10 11 -10 2 0 4 5 4 10 0 6 -5 10 -11 10 -5 0
-7 -4 -4 -10z"/>
<path d="M2338 1575 c-6 -14 -15 -25 -19 -25 -4 0 -9 -7 -12 -14 -4 -10 -1
-13 8 -10 8 3 17 14 20 25 4 10 13 26 21 34 9 8 11 15 4 15 -6 0 -16 -11 -22
-25z"/>
<path d="M121 1574 c0 -11 3 -14 6 -6 3 7 2 16 -1 19 -3 4 -6 -2 -5 -13z"/>
<path d="M535 1568 l-20 -21 23 12 c12 6 22 16 22 21 0 13 -2 12 -25 -12z"/>
<path d="M1240 1577 c0 -9 -4 -17 -10 -17 -5 0 -10 -7 -10 -15 0 -8 4 -15 10
-15 11 0 25 48 16 57 -3 4 -6 -1 -6 -10z"/>
<path d="M1860 1545 c-6 -19 -15 -35 -20 -35 -4 0 -10 -9 -13 -21 -9 -34 20
-3 35 37 6 19 16 34 20 34 4 0 8 5 8 10 0 23 -19 7 -30 -25z"/>
<path d="M1082 1545 c1 -12 7 -21 13 -18 7 2 17 -6 24 -19 8 -16 10 -17 5 -3
-4 11 -7 28 -8 37 0 9 -8 19 -18 21 -13 4 -17 0 -16 -18z"/>
<path d="M1500 1547 c0 -15 -4 -27 -9 -27 -5 0 -13 -9 -16 -20 -3 -11 -13 -27
-22 -35 -8 -9 -12 -19 -8 -23 4 -4 9 -2 11 3 4 10 32 54 56 87 10 14 10 20 0
30 -9 9 -12 6 -12 -15z"/>
<path d="M1675 1560 c-3 -5 -1 -10 5 -10 7 0 9 -7 6 -16 -3 -8 -2 -12 3 -9 5
3 17 -5 25 -17 9 -12 16 -17 16 -11 0 6 -7 18 -15 27 -8 8 -15 19 -15 25 0 15
-18 23 -25 11z"/>
<path d="M1366 1552 c6 -4 14 -14 17 -22 4 -10 6 -8 6 8 1 15 -5 22 -16 22
-11 0 -14 -3 -7 -8z"/>
<path d="M2480 1535 c0 -14 5 -25 10 -25 6 0 10 11 10 25 0 14 -4 25 -10 25
-5 0 -10 -11 -10 -25z"/>
<path d="M2080 1545 c0 -3 15 -22 34 -43 19 -20 47 -50 61 -67 15 -16 10 -7
-10 20 -39 51 -85 100 -85 90z"/>
<path d="M100 1505 c0 -14 5 -25 10 -25 6 0 10 11 10 25 0 14 -4 25 -10 25 -5
0 -10 -11 -10 -25z"/>
<path d="M773 1478 c12 -23 28 -48 35 -56 14 -16 7 -48 -14 -70 -19 -19 -18
-27 2 -12 8 8 24 31 34 53 16 32 17 38 4 33 -10 -4 -18 1 -21 14 -3 11 -9 20
-13 20 -4 0 -13 14 -20 30 -7 17 -16 30 -20 30 -5 0 1 -19 13 -42z"/>
<path d="M920 1510 c0 -5 5 -10 10 -10 6 0 10 5 10 10 0 6 -4 10 -10 10 -5 0
-10 -4 -10 -10z"/>
<path d="M1657 1489 c-4 -16 -3 -18 9 -8 16 13 19 29 5 29 -5 0 -11 -9 -14
-21z"/>
<path d="M2270 1474 c-14 -20 -34 -45 -45 -58 -11 -12 -21 -28 -23 -36 -2 -8
-9 -18 -15 -22 -9 -6 -9 -8 1 -8 7 0 18 11 24 25 6 14 15 25 19 25 4 0 10 8
14 19 3 10 17 31 30 47 21 25 32 45 23 44 -2 0 -14 -17 -28 -36z"/>
<path d="M862 1475 c-17 -37 -14 -45 4 -12 9 16 14 31 11 33 -2 2 -9 -7 -15
-21z"/>
<path d="M1530 1490 c0 -5 5 -10 11 -10 5 0 7 5 4 10 -3 6 -8 10 -11 10 -2 0
-4 -4 -4 -10z"/>
<path d="M940 1485 c0 -5 5 -17 10 -25 5 -8 10 -10 10 -5 0 6 -5 17 -10 25 -5
8 -10 11 -10 5z"/>
<path d="M1137 1464 c6 -15 23 -19 23 -5 0 5 -7 11 -14 14 -10 4 -13 1 -9 -9z"/>
<path d="M1408 1468 c34 -34 16 -38 -178 -37 -162 0 -192 -2 -206 -16 -9 -9
-14 -19 -11 -22 3 -3 13 2 22 11 11 10 34 16 67 16 43 0 55 -4 79 -30 16 -16
29 -26 29 -21 0 5 -7 16 -15 25 -8 8 -15 17 -15 20 0 3 53 6 118 6 106 0 119
-2 132 -20 8 -11 19 -20 24 -20 6 0 5 5 -2 12 -22 22 -12 28 48 28 33 0 60 -4
60 -10 0 -5 6 -10 14 -10 8 0 20 -16 26 -35 6 -19 15 -35 19 -35 4 0 15 -25
26 -55 10 -30 23 -55 28 -55 6 0 6 -5 -1 -12 -5 -7 -13 -24 -17 -38 -7 -21 -6
-22 6 -10 18 19 42 73 29 65 -5 -3 -10 1 -10 9 0 9 -4 16 -9 16 -5 0 -17 23
-26 50 -9 28 -21 50 -26 50 -14 0 -11 28 4 33 7 2 8 8 3 13 -5 5 -11 3 -13 -4
-3 -9 -14 1 -29 25 -13 21 -24 32 -24 26 0 -9 -19 -13 -60 -13 -55 0 -62 2
-72 25 -6 14 -16 25 -22 25 -6 0 -5 -5 2 -12z"/>
<path d="M1737 1461 c3 -11 11 -22 19 -25 11 -4 12 -2 4 14 -14 27 -29 34 -23
11z"/>
<path d="M2502 1450 c0 -19 2 -27 5 -17 2 9 2 25 0 35 -3 9 -5 1 -5 -18z"/>
<path d="M1180 1460 c0 -5 5 -10 10 -10 6 0 10 5 10 10 0 6 -4 10 -10 10 -5 0
-10 -4 -10 -10z"/>
<path d="M1641 1453 c-1 -6 -4 -20 -7 -30 -5 -17 -5 -17 6 0 6 10 9 23 6 30
-3 9 -5 9 -5 0z"/>
<path d="M93 1410 c0 -25 2 -35 4 -22 2 12 2 32 0 45 -2 12 -4 2 -4 -23z"/>
<path d="M960 1430 c0 -5 5 -10 10 -10 6 0 10 5 10 10 0 6 -4 10 -10 10 -5 0
-10 -4 -10 -10z"/>
<path d="M1773 1407 c7 -18 -11 -67 -23 -67 -4 0 -10 -9 -13 -21 -9 -33 17 -5
38 41 15 34 16 43 5 53 -10 10 -12 9 -7 -6z"/>
<path d="M986 1380 c4 -19 11 -36 16 -38 4 -2 8 -10 8 -18 0 -8 5 -14 10 -14
6 0 10 4 10 9 0 6 -4 13 -10 16 -5 3 -10 14 -10 23 0 9 -7 26 -16 37 -13 18
-14 17 -8 -15z"/>
<path d="M1062 1376 c7 -8 15 -12 17 -11 5 6 -10 25 -20 25 -5 0 -4 -6 3 -14z"/>
<path d="M1140 1375 c0 -8 5 -15 10 -15 6 0 10 7 10 15 0 8 -4 15 -10 15 -5 0
-10 -7 -10 -15z"/>
<path d="M1536 1374 c-20 -19 -20 -25 -2 -18 8 3 17 12 20 20 7 18 1 18 -18
-2z"/>
<path d="M830 1371 c0 -5 6 -14 14 -20 12 -10 13 -8 9 8 -5 21 -23 30 -23 12z"/>
<path d="M2220 1371 c0 -5 7 -11 14 -14 10 -4 13 -1 9 9 -6 15 -23 19 -23 5z"/>
<path d="M1386 1353 c-6 -14 -5 -15 5 -6 7 7 10 15 7 18 -3 3 -9 -2 -12 -12z"/>
<path d="M1790 1361 c0 -5 7 -11 14 -14 10 -4 13 -1 9 9 -6 15 -23 19 -23 5z"/>
<path d="M1217 1334 c6 -15 23 -19 23 -5 0 5 -7 11 -14 14 -10 4 -13 1 -9 -9z"/>
<path d="M1104 1325 c8 -9 12 -23 9 -32 -4 -9 -2 -14 3 -10 5 3 21 -11 34 -31
32 -48 73 -92 64 -68 -4 10 -16 28 -28 41 -37 39 -56 69 -56 86 0 9 -7 20 -16
23 -24 9 -27 7 -10 -9z"/>
<path d="M1492 1317 c-25 -27 -28 -39 -8 -31 9 3 16 -4 20 -22 4 -14 9 -24 12
-22 2 3 0 17 -6 32 -7 19 -7 33 0 47 14 25 8 24 -18 -4z"/>
<path d="M2160 1320 c-6 -11 -8 -20 -6 -20 3 0 10 9 16 20 6 11 8 20 6 20 -3
0 -10 -9 -16 -20z"/>
<path d="M972 1310 c-7 -11 -8 -20 -3 -20 9 0 24 30 18 36 -1 2 -8 -6 -15 -16z"/>
<path d="M1358 1305 c-24 -33 -23 -43 2 -15 11 13 20 27 20 32 0 12 -3 10 -22
-17z"/>
<path d="M2260 1322 c0 -4 9 -13 20 -20 19 -12 20 -11 8 8 -13 20 -28 27 -28
12z"/>
<path d="M764 1306 c-18 -20 -24 -46 -9 -40 7 3 16 15 19 27 6 26 4 29 -10 13z"/>
<path d="M1570 1310 c0 -5 5 -10 10 -10 6 0 10 5 10 10 0 6 -4 10 -10 10 -5 0
-10 -4 -10 -10z"/>
<path d="M314 1296 c-10 -8 -17 -16 -14 -19 3 -2 14 4 24 14 23 22 18 25 -10
5z"/>
<path d="M877 1283 c3 -13 8 -23 12 -23 4 0 13 -15 19 -34 19 -51 37 -62 37
-23 0 18 4 43 7 57 6 21 6 21 -4 -2 -12 -29 -38 -38 -38 -14 0 8 -9 24 -19 37
l-20 24 6 -22z"/>
<path d="M1250 1281 c0 -6 4 -13 10 -16 6 -3 7 1 4 9 -7 18 -14 21 -14 7z"/>
<path d="M2127 1276 c-4 -10 -1 -13 9 -9 15 6 19 23 5 23 -5 0 -11 -7 -14 -14z"/>
<path d="M1850 1271 c0 -6 4 -13 10 -16 6 -3 7 1 4 9 -7 18 -14 21 -14 7z"/>
<path d="M2300 1272 c0 -6 6 -15 13 -19 7 -4 28 -27 47 -50 18 -24 37 -43 41
-43 7 0 -18 31 -78 98 -13 14 -23 20 -23 14z"/>
<path d="M1090 1260 c0 -5 5 -10 10 -10 6 0 10 5 10 10 0 6 -4 10 -10 10 -5 0
-10 -4 -10 -10z"/>
<path d="M1448 1254 c-7 -8 -21 -24 -31 -36 -10 -11 -17 -22 -14 -24 3 -3 19
13 37 36 17 22 29 40 26 40 -3 0 -11 -7 -18 -16z"/>
<path d="M489 1241 c6 -10 17 -23 25 -31 9 -7 16 -16 16 -21 0 -5 9 -18 20
-29 31 -31 24 -9 -10 30 -16 19 -29 40 -30 46 0 7 -7 14 -15 18 -12 4 -13 2
-6 -13z"/>
<path d="M1312 1235 c-21 -24 -19 -33 4 -17 10 6 27 42 20 42 -1 0 -12 -11
-24 -25z"/>
<path d="M252 1219 c-13 -16 -21 -29 -18 -29 6 0 56 49 56 55 0 13 -17 1 -38
-26z"/>
<path d="M1050 1241 c0 -6 5 -13 10 -16 6 -3 10 1 10 9 0 9 -4 16 -10 16 -5 0
-10 -4 -10 -9z"/>
<path d="M1270 1240 c0 -5 5 -10 10 -10 6 0 10 5 10 10 0 6 -4 10 -10 10 -5 0
-10 -4 -10 -10z"/>
<path d="M2102 1234 c-7 -8 -8 -14 -3 -14 10 0 25 19 20 25 -2 1 -10 -3 -17
-11z"/>
<path d="M1074 1223 c-9 -14 -5 -27 18 -63 19 -29 27 -36 22 -20 -4 14 -11 28
-16 31 -5 3 -10 20 -10 37 -1 18 -2 32 -2 32 -1 0 -6 -8 -12 -17z"/>
<path d="M1520 1221 c0 -17 12 -41 21 -41 5 0 8 11 7 25 -2 23 -28 37 -28 16z"/>
<path d="M92 1190 c0 -19 2 -27 5 -17 2 9 2 25 0 35 -3 9 -5 1 -5 -18z"/>
<path d="M714 1212 c-14 -9 -27 -45 -14 -37 9 6 34 45 28 45 -2 0 -8 -4 -14
-8z"/>
<path d="M2068 1191 c-9 -11 -22 -30 -28 -43 -11 -22 -11 -22 10 2 22 26 43
60 38 60 -2 0 -11 -9 -20 -19z"/>
<path d="M1900 1181 c0 -6 4 -13 10 -16 6 -3 7 1 4 9 -7 18 -14 21 -14 7z"/>
<path d="M199 1149 c-13 -18 -35 -43 -49 -57 l-25 -24 -3 26 c-2 14 -8 26 -13
26 -12 0 -12 -47 1 -55 6 -3 10 -18 11 -33 1 -25 1 -25 11 7 5 19 17 41 27 50
22 19 76 91 68 91 -2 0 -15 -14 -28 -31z"/>
<path d="M1355 1130 c-20 -27 -44 -54 -53 -59 -9 -5 -13 -13 -9 -18 5 -4 18 3
28 17 11 14 25 32 32 40 20 25 48 70 43 70 -2 0 -21 -22 -41 -50z"/>
<path d="M2502 1150 c0 -19 2 -27 5 -17 2 9 2 25 0 35 -3 9 -5 1 -5 -18z"/>
<path d="M670 1137 c-21 -32 -32 -59 -20 -52 6 3 10 13 10 21 0 8 4 14 9 14 9
0 24 30 18 36 -1 2 -9 -7 -17 -19z"/>
<path d="M1220 1155 c0 -3 9 -14 20 -25 22 -22 26 -14 6 13 -13 16 -26 23 -26
12z"/>
<path d="M582 1116 c7 -8 15 -12 17 -11 5 6 -10 25 -20 25 -5 0 -4 -6 3 -14z"/>
<path d="M972 1110 c7 -10 14 -18 15 -16 6 6 -9 36 -18 36 -5 0 -4 -9 3 -20z"/>
<path d="M1030 1116 c0 -8 -9 -21 -21 -29 -15 -11 -19 -23 -17 -43 l4 -29 9
30 c4 16 14 36 22 43 13 13 18 42 8 42 -3 0 -5 -6 -5 -14z"/>
<path d="M1480 1120 c0 -5 5 -10 10 -10 6 0 10 5 10 10 0 6 -4 10 -10 10 -5 0
-10 -4 -10 -10z"/>
<path d="M2429 1113 c6 -13 16 -23 22 -23 5 0 14 -12 19 -26 11 -28 30 -24 30
8 0 13 -5 18 -14 15 -8 -3 -27 6 -42 21 -24 24 -26 24 -15 5z"/>
<path d="M1570 1105 c0 -8 5 -15 10 -15 15 0 11 -52 -5 -74 -20 -26 -19 -42 0
-22 8 8 15 19 15 24 0 5 7 15 15 22 8 7 12 17 9 22 -4 6 0 15 7 20 11 8 10 8
-4 4 -13 -4 -20 0 -24 14 -6 23 -23 27 -23 5z"/>
<path d="M1940 1111 c0 -6 4 -13 10 -16 6 -3 7 1 4 9 -7 18 -14 21 -14 7z"/>
<path d="M2005 1096 c-11 -13 -26 -21 -32 -19 -8 3 -13 -3 -13 -16 0 -12 6
-21 15 -21 8 0 15 7 15 15 0 8 10 23 22 35 12 11 20 22 17 24 -2 3 -13 -6 -24
-18z"/>
<path d="M1267 1089 c7 -7 15 -10 18 -7 3 3 -2 9 -12 12 -14 6 -15 5 -6 -5z"/>
<path d="M605 1050 c-1 -24 -11 -52 -28 -77 -15 -22 -27 -44 -27 -51 0 -7 -4
-12 -10 -12 -5 0 -10 -4 -10 -10 0 -23 19 -7 30 25 6 19 15 35 20 35 4 0 15
18 24 40 18 45 30 50 47 18 15 -29 39 -52 39 -39 0 5 -5 13 -11 17 -6 3 -17
21 -25 40 -8 18 -22 37 -31 43 -16 8 -18 4 -18 -29z"/>
<path d="M1132 1063 c2 -9 9 -18 16 -21 18 -6 15 25 -4 32 -11 4 -14 1 -12
-11z"/>
<path d="M1452 1059 c-7 -12 -11 -24 -7 -27 7 -8 25 17 25 36 0 17 -3 15 -18
-9z"/>
<path d="M1010 1025 c0 -8 4 -15 9 -15 5 0 13 -10 17 -22 8 -27 44 -75 44 -60
0 6 -6 17 -14 24 -7 8 -19 30 -27 51 -13 38 -29 49 -29 22z"/>
<path d="M1610 1025 c0 -8 5 -15 10 -15 6 0 10 7 10 15 0 8 -4 15 -10 15 -5 0
-10 -7 -10 -15z"/>
<path d="M1920 977 c-19 -29 -37 -54 -40 -57 -3 -3 -21 -27 -40 -55 -19 -27
-40 -56 -47 -63 -17 -17 -16 -23 1 -16 7 3 18 16 24 30 7 13 16 24 22 24 5 0
10 5 10 10 0 10 65 110 78 120 11 8 34 52 30 55 -2 2 -19 -19 -38 -48z"/>
<path d="M1990 1023 c0 -5 9 -20 20 -33 11 -13 20 -19 20 -13 0 5 -9 20 -20
33 -11 13 -20 19 -20 13z"/>
<path d="M2472 1010 c0 -14 2 -19 5 -12 2 6 2 18 0 25 -3 6 -5 1 -5 -13z"/>
<path d="M974 996 c-6 -7 -15 -23 -19 -36 -7 -21 -6 -22 7 -9 14 13 34 60 26
59 -2 -1 -8 -7 -14 -14z"/>
<path d="M131 974 c0 -11 3 -14 6 -6 3 7 2 16 -1 19 -3 4 -6 -2 -5 -13z"/>
<path d="M1180 970 c0 -5 5 -10 11 -10 5 0 7 5 4 10 -3 6 -8 10 -11 10 -2 0
-4 -4 -4 -10z"/>
<path d="M718 921 c15 -22 28 -38 30 -36 5 5 -33 65 -45 69 -7 3 0 -12 15 -33z"/>
<path d="M140 935 c0 -8 5 -15 10 -15 6 0 10 7 10 15 0 8 -4 15 -10 15 -5 0
-10 -7 -10 -15z"/>
<path d="M1530 940 c0 -5 5 -10 10 -10 6 0 10 5 10 10 0 6 -4 10 -10 10 -5 0
-10 -4 -10 -10z"/>
<path d="M2040 936 c0 -4 9 -19 20 -33 11 -14 20 -21 20 -16 0 6 -9 20 -20 33
-11 13 -20 20 -20 16z"/>
<path d="M2446 931 c-4 -7 -5 -15 -2 -18 9 -9 19 4 14 18 -4 11 -6 11 -12 0z"/>
<path d="M1660 910 c0 -5 5 -10 10 -10 6 0 10 5 10 10 0 6 -4 10 -10 10 -5 0
-10 -4 -10 -10z"/>
<path d="M161 894 c0 -11 3 -14 6 -6 3 7 2 16 -1 19 -3 4 -6 -2 -5 -13z"/>
<path d="M920 890 c0 -5 5 -10 10 -10 6 0 10 5 10 10 0 6 -4 10 -10 10 -5 0
-10 -4 -10 -10z"/>
<path d="M1220 893 c0 -5 8 -17 17 -28 14 -18 15 -18 9 -2 -3 10 -6 23 -6 28
0 5 -4 9 -10 9 -5 0 -10 -3 -10 -7z"/>
<path d="M2431 884 c0 -11 3 -14 6 -6 3 7 2 16 -1 19 -3 4 -6 -2 -5 -13z"/>
<path d="M1090 880 c0 -5 5 -10 11 -10 5 0 7 5 4 10 -3 6 -8 10 -11 10 -2 0
-4 -4 -4 -10z"/>
<path d="M762 856 c7 -8 15 -12 17 -11 5 6 -10 25 -20 25 -5 0 -4 -6 3 -14z"/>
<path d="M498 838 c-25 -31 -23 -46 2 -18 11 13 20 27 20 32 0 12 -3 10 -22
-14z"/>
<path d="M1347 839 c-4 -16 -3 -18 9 -8 16 13 19 29 5 29 -5 0 -11 -9 -14 -21z"/>
<path d="M1469 815 c-7 -19 -17 -35 -21 -35 -4 0 -8 -4 -8 -10 0 -23 19 -7 30
25 6 19 16 35 21 35 5 0 9 5 9 10 0 23 -20 7 -31 -25z"/>
<path d="M2090 841 c0 -5 7 -11 14 -14 10 -4 13 -1 9 9 -6 15 -23 19 -23 5z"/>
<path d="M180 833 c0 -5 8 -17 17 -28 14 -18 15 -18 9 -2 -3 10 -6 23 -6 28 0
5 -4 9 -10 9 -5 0 -10 -3 -10 -7z"/>
<path d="M893 824 c-15 -15 -17 -34 -4 -34 8 0 24 41 18 46 -1 1 -8 -4 -14
-12z"/>
<path d="M805 796 c14 -18 25 -38 25 -44 0 -9 -52 -12 -185 -12 l-185 0 10 26
c7 16 7 23 0 19 -6 -3 -10 -13 -10 -21 0 -8 -4 -14 -10 -14 -5 0 -10 -4 -10
-10 0 -6 75 -10 205 -10 176 0 205 -2 205 -15 0 -8 -4 -15 -10 -15 -5 0 -10
-4 -10 -10 0 -18 16 -10 30 15 l13 25 273 0 c206 0 274 -3 277 -13 4 -9 6 -9
6 1 1 9 39 12 156 12 85 0 155 -3 155 -7 0 -5 -11 -21 -25 -37 -29 -33 -30
-37 -11 -30 7 3 18 16 24 30 14 28 27 31 42 7 8 -15 9 -13 4 10 l-6 27 201 0
c184 0 200 1 194 17 -4 11 -8 12 -11 5 -3 -9 -55 -12 -193 -12 -175 0 -188 1
-183 18 5 14 4 15 -5 2 -9 -13 -56 -15 -305 -17 l-294 -2 -6 24 c-4 14 -11 25
-16 25 -6 0 -10 6 -10 14 0 8 -4 17 -10 21 -5 3 -5 -7 1 -25 6 -16 15 -30 20
-30 5 0 9 -7 9 -15 0 -14 -22 -16 -155 -14 -126 1 -155 3 -155 15 0 8 -5 14
-10 14 -6 0 -15 11 -22 24 -6 14 -17 27 -25 30 -7 3 -2 -9 12 -28z"/>
<path d="M1261 800 c6 -16 15 -30 19 -30 5 0 2 14 -6 30 -9 17 -17 30 -19 30
-2 0 1 -13 6 -30z"/>
<path d="M2390 790 c0 -5 5 -10 10 -10 6 0 10 5 10 10 0 6 -4 10 -10 10 -5 0
-10 -4 -10 -10z"/>
<path d="M1310 770 c0 -5 5 -10 10 -10 6 0 10 5 10 10 0 6 -4 10 -10 10 -5 0
-10 -4 -10 -10z"/>
<path d="M2353 713 c-75 -123 -82 -133 -145 -205 -21 -23 -38 -46 -38 -51 0
-5 12 6 28 24 26 32 48 58 77 89 7 8 19 27 26 43 7 15 15 27 19 27 4 0 13 14
20 30 7 17 16 30 20 30 4 0 10 9 13 20 7 28 1 25 -20 -7z"/>
<path d="M230 720 c0 -5 5 -10 10 -10 6 0 10 5 10 10 0 6 -4 10 -10 10 -5 0
-10 -4 -10 -10z"/>
<path d="M256 687 c3 -10 9 -15 12 -12 3 3 0 11 -7 18 -10 9 -11 8 -5 -6z"/>
<path d="M909 646 c23 -30 41 -60 41 -65 0 -6 10 -15 21 -22 20 -10 19 -8 -5
23 -14 19 -26 40 -26 45 0 6 -7 13 -15 17 -8 3 -15 12 -15 20 0 9 -9 20 -21
27 -15 8 -10 -5 20 -45z"/>
<path d="M1216 650 c4 -14 10 -27 14 -30 4 -3 17 -27 30 -55 12 -27 24 -44 27
-38 3 7 -3 20 -11 29 -9 8 -16 21 -16 27 0 7 -12 30 -26 52 -18 29 -23 33 -18
15z"/>
<path d="M1375 639 c-4 -6 -5 -12 -2 -15 2 -3 7 2 10 11 7 17 1 20 -8 4z"/>
<path d="M290 635 c0 -28 269 -315 295 -315 14 0 2 18 -22 32 -16 9 -59 48
-98 86 -76 76 -82 82 -138 156 -20 27 -37 45 -37 41z"/>
<path d="M802 620 c-14 -23 -15 -30 -3 -30 8 0 24 41 18 47 -2 1 -8 -7 -15
-17z"/>
<path d="M1668 620 c-26 -24 -22 -35 4 -10 12 11 20 22 17 24 -2 2 -12 -4 -21
-14z"/>
<path d="M1790 633 c0 -5 8 -17 17 -28 14 -18 15 -18 9 -2 -3 10 -6 23 -6 28
0 5 -4 9 -10 9 -5 0 -10 -3 -10 -7z"/>
<path d="M1350 600 c0 -5 5 -10 10 -10 6 0 10 5 10 10 0 6 -4 10 -10 10 -5 0
-10 -4 -10 -10z"/>
<path d="M1612 542 l-30 -38 -126 4 c-88 3 -126 1 -126 -7 0 -7 39 -11 120
-11 110 0 119 -1 113 -17 -7 -17 -6 -17 11 0 15 14 37 17 137 17 73 0 119 4
119 10 0 6 -46 10 -117 10 -95 1 -115 3 -103 13 16 13 43 57 36 57 -2 0 -18
-17 -34 -38z"/>
<path d="M1823 567 c4 -10 7 -23 7 -28 0 -5 5 -9 10 -9 15 0 12 20 -7 38 -16
16 -16 16 -10 -1z"/>
<path d="M770 545 c0 -8 -4 -15 -10 -15 -5 0 -10 -9 -10 -20 0 -19 7 -20 135
-20 l136 0 17 -30 c9 -16 23 -32 30 -35 7 -3 4 7 -7 21 -12 15 -21 31 -21 35
0 5 63 9 141 9 121 0 140 2 135 15 -3 8 -1 15 4 15 6 0 10 5 10 10 0 6 -11 3
-24 -5 -19 -13 -54 -16 -157 -17 -118 0 -134 2 -147 18 -13 18 -13 18 -10 1 3
-16 -6 -18 -97 -18 -55 0 -106 0 -113 0 -8 1 -10 9 -6 26 3 14 3 25 0 25 -3 0
-6 -7 -6 -15z"/>
<path d="M1846 511 c-4 -7 -5 -15 -2 -18 9 -9 19 4 14 18 -4 11 -6 11 -12 0z"/>
<path d="M1544 442 c-6 -4 -19 -23 -30 -42 -10 -19 -25 -39 -31 -43 -7 -4 -13
-12 -13 -17 0 -6 9 -2 20 7 11 10 20 22 20 27 0 5 11 24 26 43 26 34 27 38 8
25z"/>
<path d="M2090 390 c-24 -22 -41 -40 -37 -40 4 0 27 18 49 40 23 22 40 40 37
40 -3 0 -25 -18 -49 -40z"/>
<path d="M1080 400 c0 -5 6 -13 13 -17 7 -4 21 -25 32 -45 10 -21 25 -40 33
-43 7 -2 1 10 -13 29 -14 18 -25 37 -25 42 0 5 -9 17 -20 27 -11 9 -20 13 -20
7z"/>
<path d="M2017 330 c-9 -11 -13 -20 -7 -20 5 0 14 9 20 20 6 11 9 20 8 20 -2
0 -11 -9 -21 -20z"/>
<path d="M612 304 c10 -10 20 -16 22 -13 3 3 -5 11 -17 18 -21 13 -21 12 -5
-5z"/>
<path d="M1448 304 c-7 -8 -20 -23 -28 -33 -20 -23 -42 -62 -38 -66 2 -2 22
23 45 56 39 54 52 81 21 43z"/>
<path d="M1965 298 c-27 -16 -49 -38 -37 -38 5 0 22 11 38 25 31 27 31 31 -1
13z"/>
<path d="M1170 274 c0 -7 80 -114 85 -114 8 0 -19 44 -32 53 -7 4 -13 14 -13
20 0 7 -9 20 -20 30 -11 9 -20 14 -20 11z"/>
<path d="M680 260 c8 -5 20 -10 25 -10 6 0 3 5 -5 10 -8 5 -19 10 -25 10 -5 0
-3 -5 5 -10z"/>
<path d="M1890 253 c-20 -8 -44 -33 -32 -33 5 0 20 9 33 20 25 20 25 23 -1 13z"/>
<path d="M1810 213 c-8 -4 -21 -13 -29 -21 -13 -13 -12 -14 9 -7 13 4 30 14
38 21 14 14 8 17 -18 7z"/>
<path d="M790 200 c0 -5 5 -10 10 -10 6 0 10 5 10 10 0 6 -4 10 -10 10 -5 0
-10 -4 -10 -10z"/>
<path d="M1360 180 c-9 -6 -10 -10 -3 -10 6 0 15 5 18 10 8 12 4 12 -15 0z"/>
<path d="M1738 173 c7 -3 16 -2 19 1 4 3 -2 6 -13 5 -11 0 -14 -3 -6 -6z"/>
<path d="M888 163 c7 -3 16 -2 19 1 4 3 -2 6 -13 5 -11 0 -14 -3 -6 -6z"/>
<path d="M920 150 c0 -5 7 -10 15 -10 8 0 15 5 15 10 0 6 -7 10 -15 10 -8 0
-15 -4 -15 -10z"/>
<path d="M1328 138 c-10 -10 -18 -23 -18 -29 0 -5 -4 -7 -10 -4 -5 3 -10 1
-10 -4 0 -23 29 -9 44 21 19 37 17 41 -6 16z"/>
<path d="M1660 150 c0 -5 7 -10 15 -10 8 0 15 5 15 10 0 6 -7 10 -15 10 -8 0
-15 -4 -15 -10z"/>
<path d="M1260 141 c0 -10 19 -25 25 -20 1 2 -3 10 -11 17 -8 7 -14 8 -14 3z"/>
<path d="M1618 133 c7 -3 16 -2 19 1 4 3 -2 6 -13 5 -11 0 -14 -3 -6 -6z"/>
<path d="M1018 123 c7 -3 16 -2 19 1 4 3 -2 6 -13 5 -11 0 -14 -3 -6 -6z"/>
<path d="M1568 123 c6 -2 18 -2 25 0 6 3 1 5 -13 5 -14 0 -19 -2 -12 -5z"/>
<path d="M1070 110 c0 -5 11 -10 25 -10 14 0 25 5 25 10 0 6 -11 10 -25 10
-14 0 -25 -4 -25 -10z"/>
<path d="M1480 110 c0 -5 11 -10 25 -10 14 0 25 5 25 10 0 6 -11 10 -25 10
-14 0 -25 -4 -25 -10z"/>
<path d="M1178 93 c12 -2 32 -2 45 0 12 2 2 4 -23 4 -25 0 -35 -2 -22 -4z"/>
<path d="M1388 93 c12 -2 30 -2 40 0 9 3 -1 5 -23 4 -22 0 -30 -2 -17 -4z"/>
</g>
</svg>
